<?xml version="1.0" encoding="UTF-8"?>
<svg xmlns="http://www.w3.org/2000/svg" width="241" height="85" viewBox="0 0 241 85" fill="none">
  <g clip-path="url(#clip0_302_57)">
    <path d="M102.526 27.2865H100.252L97.7842 42.171H99.4047L100.121 37.4185H102.651L103.425 42.171H105.097L102.531 27.2865H102.526ZM100.335 35.9622C100.738 33.2413 101.276 29.8934 101.334 28.7428H101.396C101.538 30.1525 101.914 32.6816 102.442 35.9622H100.335Z" fill="white"></path>
    <path d="M114.622 35.957C114.622 33.2258 114.669 30.2872 114.716 28.6962H114.695C114.319 31.1942 113.174 37.745 112.369 42.171H110.806C110.194 38.341 109.013 31.3445 108.652 28.6858H108.605C108.652 30.4116 108.73 33.7907 108.73 36.3405V42.171H107.246V27.2865H109.614C110.44 31.6865 111.423 37.1438 111.626 39.0407H111.647C111.883 37.1853 113.033 31.4274 113.853 27.2865H116.174V42.171H114.627V35.957H114.622Z" fill="white"></path>
    <path d="M124.183 34.9619H120.816V40.7146H124.638L124.423 42.171H119.217V27.2865H124.376V28.7532H120.816V33.5056H124.183V34.9619Z" fill="white"></path>
    <path d="M132.594 37.5792C132.594 35.589 132.149 34.879 131.198 34.5266C132.008 34.2416 132.724 33.4123 132.724 31.3911V30.7122C132.724 28.2505 131.616 27.2865 129.358 27.2865H126.734V42.171H128.333V35.2211H129.264C130.754 35.2211 131.025 35.7704 131.025 37.6984C131.025 38.7401 130.994 41.2433 131.182 42.171H132.74C132.573 41.2329 132.594 38.8489 132.594 37.5792ZM131.114 31.4637C131.114 33.0547 130.738 33.8736 129.316 33.8736H128.333V28.6288H129.238C130.743 28.6288 131.114 29.4425 131.114 30.8003V31.4637Z" fill="white"></path>
    <path d="M137.011 27.2865H135.411V42.171H137.011V27.2865Z" fill="white"></path>
    <path d="M145.673 37.9004V38.4031C145.673 40.2948 145.328 42.3678 142.615 42.3678C139.902 42.3678 139.572 40.5384 139.572 38.3565V30.7847C139.572 28.4007 140.602 27.0895 142.636 27.0895C145.155 27.0895 145.605 28.8619 145.605 30.8106V31.391H143.984V30.6914C143.984 29.5098 143.796 28.5302 142.609 28.5302C141.486 28.5302 141.198 29.4165 141.198 30.7277V38.4549C141.198 39.9475 141.527 40.9322 142.656 40.9322C143.786 40.9322 144.042 39.9268 144.042 38.5223V37.9004H145.673Z" fill="white"></path>
    <path d="M152.04 27.2865H149.766L147.298 42.171H148.919L149.635 37.4185H152.165L152.939 42.171H154.612L152.045 27.2865H152.04ZM149.849 35.9622C150.252 33.2413 150.79 29.8934 150.848 28.7428H150.911C151.052 30.1525 151.428 32.6816 151.956 35.9622H149.849Z" fill="white"></path>
    <path d="M156.561 42.171V27.2865H158.469C159.28 30.0436 161.365 37.8435 161.611 39.0614H161.648C161.559 37.0609 161.538 34.9671 161.538 32.5365V27.2865H163.043V42.171H161.198C160.398 39.3775 158.245 31.1838 157.962 29.997H157.941C158.041 31.7902 158.083 34.169 158.083 36.8536V42.1658H156.567L156.561 42.171Z" fill="white"></path>
    <path d="M170.895 37.9782V38.8437C170.895 40.2482 171.381 40.9945 172.437 40.9945C173.493 40.9945 173.937 40.2223 173.937 38.5898C173.937 36.8484 173.551 36.1695 171.972 34.9516C170.367 33.7078 169.552 32.9563 169.552 30.7589C169.552 28.8724 170.121 27.0637 172.479 27.074C174.716 27.0844 175.307 28.5614 175.307 30.4531V31.1424H173.718V30.4945C173.718 29.2611 173.472 28.463 172.448 28.463C171.423 28.463 171.151 29.3596 171.151 30.5256C171.151 31.9094 171.428 32.4328 172.808 33.4694C174.894 35.0293 175.553 35.9 175.553 38.3721C175.553 40.4659 174.951 42.3731 172.416 42.3731C169.881 42.3731 169.306 40.7976 169.306 38.8385V37.9834H170.905L170.895 37.9782Z" fill="white"></path>
    <path d="M180.973 27.0843C178.851 27.0843 177.691 28.411 177.691 30.9401V38.4601C177.691 40.8959 178.543 42.3678 180.864 42.3678C183.185 42.3678 184.188 41.0566 184.188 38.4394V30.935C184.188 28.5821 183.19 27.0791 180.973 27.0791V27.0843ZM182.557 38.5223C182.557 40.2844 182.003 40.9322 180.937 40.9322C179.928 40.9322 179.316 40.2637 179.316 38.5949V30.8676C179.316 29.2454 179.839 28.5302 180.926 28.5302C182.014 28.5302 182.557 29.2869 182.557 30.8676V38.5171V38.5223Z" fill="white"></path>
    <path d="M192.557 37.9004V38.4031C192.557 40.2948 192.212 42.3678 189.499 42.3678C186.786 42.3678 186.457 40.5384 186.457 38.3565V30.7847C186.457 28.4007 187.487 27.0895 189.52 27.0895C192.04 27.0895 192.489 28.8619 192.489 30.8106V31.391H190.869V30.6914C190.869 29.5098 190.681 28.5302 189.494 28.5302C188.37 28.5302 188.083 29.4165 188.083 30.7277V38.4549C188.083 39.9475 188.412 40.9322 189.541 40.9322C190.67 40.9322 190.926 39.9268 190.926 38.5223V37.9004H192.557Z" fill="white"></path>
    <path d="M196.509 27.2865H194.91V42.171H196.509V27.2865Z" fill="white"></path>
    <path d="M204.492 34.9619H201.125V40.7146H204.952L204.732 42.171H199.531V27.2865H204.685V28.7532H201.125V33.5056H204.492V34.9619Z" fill="white"></path>
    <path d="M208.794 28.7532H206.363V27.2865H212.809V28.7532H210.393V42.171H208.794V28.7532Z" fill="white"></path>
    <path d="M217.163 42.171V36.6152C217.163 36.4494 217.142 36.3509 217.1 36.2161L214.34 27.2865H216.097C216.844 29.9815 217.743 33.1895 217.989 34.5577H218.01C218.297 33.1221 219.212 29.8623 219.902 27.2865H221.596L218.804 36.3146C218.783 36.4131 218.757 36.5323 218.757 36.7603V42.1761H217.158L217.163 42.171Z" fill="white"></path>
    <path d="M229.792 27.0843C227.67 27.0843 226.51 28.411 226.51 30.9401V38.4601C226.51 40.8959 227.362 42.3678 229.683 42.3678C232.004 42.3678 233.007 41.0566 233.007 38.4394V30.935C233.007 28.5821 232.009 27.0791 229.792 27.0791V27.0843ZM231.376 38.5223C231.376 40.2844 230.822 40.9322 229.756 40.9322C228.747 40.9322 228.135 40.2637 228.135 38.5949V30.8676C228.135 29.2454 228.658 28.5302 229.745 28.5302C230.833 28.5302 231.376 29.2869 231.376 30.8676V38.5171V38.5223Z" fill="white"></path>
    <path d="M235.773 27.2865H241V28.7532H237.372V33.5989H240.791V35.0656H237.372V42.171H235.773V27.2865Z" fill="white"></path>
    <path d="M97.941 46.9752H99.5406V53.1477H102.661V46.9752H104.261V61.8649H102.661V54.604H99.5406V61.8649H97.941V46.9752Z" fill="white"></path>
    <path d="M110.257 46.7783C108.135 46.7783 106.974 48.105 106.974 50.6341V58.1541C106.974 60.5899 107.826 62.0618 110.147 62.0618C112.468 62.0618 113.472 60.7506 113.472 58.1334V50.6289C113.472 48.276 112.473 46.7731 110.257 46.7731V46.7783ZM111.846 58.2163C111.846 59.9835 111.292 60.6262 110.226 60.6262C109.217 60.6262 108.605 59.9576 108.605 58.2888V50.5616C108.605 48.9394 109.128 48.2242 110.215 48.2242C111.302 48.2242 111.846 48.9809 111.846 50.5616V58.2111V58.2163Z" fill="white"></path>
    <path d="M123.456 55.6509C123.456 52.9196 123.503 49.9811 123.55 48.39H123.529C123.153 50.888 122.008 57.4389 121.203 61.8648H119.64C119.028 58.0349 117.847 51.0383 117.486 48.3796H117.439C117.486 50.1055 117.565 53.4845 117.565 56.0344V61.8648H116.08V46.9803H118.448C119.274 51.3804 120.257 56.8377 120.461 58.7345H120.482C120.717 56.8791 121.867 51.1213 122.688 46.9803H125.009V61.8648H123.461V55.6509H123.456Z" fill="white"></path>
    <path d="M132.902 54.6558H129.536V60.4085H133.357L133.143 61.8649H127.936V46.9752H133.096V48.4419H129.536V53.1995H132.902V54.6558Z" fill="white"></path>
    <path d="M140.853 46.9752H139.253V61.8597H140.853V46.9752Z" fill="white"></path>
    <path d="M143.906 61.8648V46.9803H145.814C146.624 49.7375 148.71 57.5373 148.956 58.7552H148.992C148.903 56.7548 148.882 54.661 148.882 52.2303V46.9803H150.388V61.8648H148.543C147.743 59.0714 145.589 50.8777 145.307 49.6908H145.286C145.385 51.484 145.427 53.8629 145.427 56.5474V61.8596H143.911L143.906 61.8648Z" fill="white"></path>
    <path d="M154.329 57.6721V58.5376C154.329 59.9421 154.815 60.6884 155.871 60.6884C156.927 60.6884 157.372 59.9162 157.372 58.2836C157.372 56.5423 156.985 55.8634 155.406 54.6454C153.801 53.4016 152.986 52.6501 152.986 50.4527C152.986 48.5662 153.556 46.7575 155.913 46.7679C158.151 46.7782 158.741 48.2553 158.741 50.1469V50.8362H157.152V50.1884C157.152 48.9549 156.906 48.1568 155.882 48.1568C154.857 48.1568 154.585 49.0534 154.585 50.2195C154.585 51.6032 154.862 52.1267 156.243 53.1632C158.328 54.7232 158.987 55.5939 158.987 58.066C158.987 60.1597 158.386 62.0669 155.85 62.0669C153.315 62.0669 152.74 60.4914 152.74 58.5324V57.6773H154.34L154.329 57.6721Z" fill="white"></path>
    <path d="M163.739 46.9752H160.994V61.8596H162.594V55.2932H163.634C166.363 55.2932 167.037 53.64 167.037 51.4011V50.4941C167.037 48.0894 165.976 46.97 163.744 46.97L163.739 46.9752ZM165.432 51.3804C165.432 52.93 165.187 53.9613 163.483 53.9613H162.589V48.3226H163.618C165.166 48.3226 165.427 49.3747 165.427 50.5823V51.3804H165.432Z" fill="white"></path>
    <path d="M174.282 54.6558H170.916V60.4085H174.742L174.523 61.8649H169.316V46.9752H174.476V48.4419H170.916V53.1995H174.282V54.6558Z" fill="white"></path>
    <path d="M182.667 57.5944V58.0971C182.667 59.9887 182.322 62.0618 179.609 62.0618C176.896 62.0618 176.567 60.2323 176.567 58.0504V50.4787C176.567 48.0947 177.597 46.7834 179.63 46.7834C182.15 46.7834 182.599 48.5559 182.599 50.5046V51.085H180.979V50.3854C180.979 49.2037 180.791 48.2242 179.604 48.2242C178.48 48.2242 178.192 49.1053 178.192 50.4216V58.1489C178.192 59.6415 178.522 60.6262 179.651 60.6262C180.78 60.6262 181.036 59.6208 181.036 58.2163V57.5944H182.667Z" fill="white"></path>
    <path d="M186.656 48.4419H184.225V46.9752H190.67V48.4419H188.25V61.8649H186.656V48.4419Z" fill="white"></path>
    <path d="M195.495 46.7783C193.373 46.7783 192.212 48.105 192.212 50.6341V58.1541C192.212 60.5899 193.064 62.0618 195.385 62.0618C197.706 62.0618 198.71 60.7506 198.71 58.1334V50.6289C198.71 48.276 197.712 46.7731 195.495 46.7731V46.7783ZM197.079 58.2163C197.079 59.9835 196.525 60.6262 195.459 60.6262C194.45 60.6262 193.838 59.9576 193.838 58.2888V50.5616C193.838 48.9394 194.361 48.2242 195.448 48.2242C196.536 48.2242 197.079 48.9809 197.079 50.5616V58.2111V58.2163Z" fill="white"></path>
    <path d="M207.325 57.273C207.325 55.2829 206.881 54.5729 205.929 54.2205C206.739 53.9354 207.456 53.1062 207.456 51.085V50.4061C207.456 47.9443 206.347 46.9803 204.089 46.9803H201.465V61.8648H203.065V54.9149H203.995C205.485 54.9149 205.757 55.4643 205.757 57.3922C205.757 58.4339 205.725 60.9371 205.914 61.8648H207.471C207.299 60.9268 207.325 58.5428 207.325 57.273ZM205.851 51.1575C205.851 52.7486 205.474 53.5674 204.053 53.5674H203.07V48.3226H203.974C205.48 48.3226 205.851 49.1363 205.851 50.4942V51.1575Z" fill="white"></path>
    <path d="M211.266 57.6721V58.5376C211.266 59.9421 211.753 60.6884 212.809 60.6884C213.864 60.6884 214.309 59.9162 214.309 58.2836C214.309 56.5423 213.922 55.8634 212.343 54.6454C210.738 53.4016 209.923 52.6501 209.923 50.4527C209.923 48.5662 210.493 46.7575 212.85 46.7679C215.088 46.7782 215.678 48.2553 215.678 50.1469V50.8362H214.089V50.1884C214.089 48.9549 213.844 48.1568 212.819 48.1568C211.794 48.1568 211.523 49.0534 211.523 50.2195C211.523 51.6032 211.8 52.1267 213.18 53.1632C215.265 54.7232 215.924 55.5939 215.924 58.066C215.924 60.1597 215.323 62.0669 212.788 62.0669C210.252 62.0669 209.677 60.4914 209.677 58.5324V57.6773H211.277L211.266 57.6721Z" fill="white"></path>
    <path d="M74.3863 76.2051C74.3863 74.9975 75.3534 74.0336 76.5766 74.0336C77.7998 74.0336 78.7669 74.9975 78.7669 76.2051C78.7669 77.4126 77.7998 78.3766 76.5766 78.3766C75.3534 78.3766 74.3863 77.4126 74.3863 76.2051ZM74.747 76.2051C74.747 77.2312 75.5781 78.0242 76.5818 78.0242C77.5855 78.0242 78.4219 77.2312 78.4219 76.2051C78.4219 75.1789 77.5855 74.3912 76.5818 74.3912C75.5781 74.3912 74.747 75.1841 74.747 76.2051ZM77.5802 77.4385H77.1725L76.5452 76.3139H76.0904V77.4385H75.735V75.0027H76.77C77.2196 75.0027 77.6168 75.1323 77.6168 75.6505C77.6168 76.1273 77.2875 76.3035 76.9582 76.3139L77.5802 77.4385ZM76.0904 75.3551V75.9615H76.4668C76.8014 75.9615 77.2614 76.0185 77.2614 75.6868C77.2614 75.3759 77 75.3551 76.702 75.3551H76.0904Z" fill="white"></path>
    <path d="M18.5887 17.2995C19.8746 16.0816 21.2442 14.9622 22.6713 13.9671L18.3691 7.60803C16.5082 8.89332 14.757 10.3237 13.126 11.8785L18.5887 17.2943V17.2995Z" fill="white"></path>
    <path d="M14.0722 22.4977C15.0916 21.057 16.2416 19.6732 17.4962 18.3827L12.0335 12.9669C10.4339 14.6046 8.97027 16.3719 7.65295 18.248L14.0775 22.4977H14.0722Z" fill="white"></path>
    <path d="M23.9573 13.1276C25.4994 12.1481 27.0885 11.2982 28.6933 10.5985L25.7294 3.52942C23.6071 4.44674 21.5788 5.53509 19.6499 6.76337L23.9573 13.1276Z" fill="white"></path>
    <path d="M8.52073 34.993C8.8971 33.3138 9.42507 31.5983 10.0942 29.8881L2.94829 26.9651C2.1119 29.0744 1.43757 31.2615 0.951416 33.5159L8.52073 34.993Z" fill="white"></path>
    <path d="M7.72614 41.72C7.76273 39.9942 7.94046 38.2373 8.24365 36.5011L0.658656 35.0189C0.266599 37.2008 0.0418194 39.4397 0 41.72H7.72091H7.72614Z" fill="white"></path>
    <path d="M8.24888 48.5611C7.93523 46.799 7.7575 45.0162 7.72091 43.2489H0C0.0418194 45.5707 0.266599 47.8459 0.66911 50.0589L8.24888 48.5611Z" fill="white"></path>
    <path d="M10.6692 28.4681C11.3749 26.8874 12.2322 25.3067 13.2254 23.7726L6.79567 19.5177C5.55154 21.4301 4.45901 23.4409 3.53375 25.5503L10.6692 28.4681Z" fill="white"></path>
    <path d="M30.1257 10.0232C31.8403 9.35981 33.5705 8.83636 35.2642 8.46322L33.7535 0.953613C31.4796 1.44078 29.2788 2.10934 27.1565 2.93855L30.1257 10.0232Z" fill="white"></path>
    <path d="M68.265 18.4139C69.4882 19.6784 70.6121 21.0363 71.621 22.4511L78.035 18.1858C76.7386 16.346 75.2958 14.6098 73.7276 12.998L68.265 18.4139Z" fill="white"></path>
    <path d="M84.7627 33.4226C84.2661 31.1733 83.5917 28.9915 82.7553 26.8873L75.6147 29.8311C76.2838 31.5258 76.8118 33.2308 77.1934 34.9204L84.7627 33.4226Z" fill="white"></path>
    <path d="M72.4782 23.726C73.461 25.2445 74.3183 26.8149 75.0292 28.4111L82.1594 25.4726C81.2342 23.3736 80.1364 21.3628 78.8923 19.4556L72.473 23.726H72.4782Z" fill="white"></path>
    <path d="M10.1151 55.1688C9.44599 53.4741 8.91279 51.7587 8.53641 50.064L0.967102 51.5617C1.45848 53.8162 2.13805 56.0032 2.97966 58.1074L10.1203 55.1688H10.1151Z" fill="white"></path>
    <path d="M50.4185 0.653009C48.223 0.264313 45.97 0.0414609 43.6699 0V7.66508C45.4107 7.70654 47.1775 7.87757 48.9235 8.17816L50.4185 0.647826V0.653009Z" fill="white"></path>
    <path d="M63.0323 13.9516C64.4751 14.957 65.8708 16.092 67.1776 17.3358L72.6403 11.92C70.9884 10.3393 69.2111 8.88817 67.3188 7.58215L63.0323 13.9516Z" fill="white"></path>
    <path d="M50.4446 8.45797C52.1383 8.82593 53.8582 9.34938 55.5832 10.0179L58.5367 2.92812C56.4144 2.0989 54.2136 1.43553 51.9397 0.948364L50.4446 8.46315V8.45797Z" fill="white"></path>
    <path d="M57.0155 10.5829C58.6099 11.2774 60.1938 12.1273 61.7463 13.1069L66.038 6.72706C64.1143 5.49878 62.0809 4.41561 59.9638 3.49829L57.0155 10.5777V10.5829Z" fill="white"></path>
    <path d="M61.8352 71.8362C60.3088 72.8105 58.7196 73.6605 57.1044 74.3705L60.0683 81.4447C62.1854 80.5222 64.2137 79.4339 66.1374 78.2004L61.83 71.8362H61.8352Z" fill="white"></path>
    <path d="M55.6773 74.951C53.9732 75.6144 52.2481 76.1378 50.5388 76.5161L52.0547 84.0257C54.3286 83.5334 56.5294 82.8597 58.6517 82.0253L55.6825 74.9458L55.6773 74.951Z" fill="white"></path>
    <path d="M67.1934 67.6538C65.9231 68.8614 64.5535 69.9808 63.116 70.9862L67.4234 77.3505C69.2791 76.06 71.0303 74.6296 72.656 73.0696L67.1934 67.6538Z" fill="white"></path>
    <path d="M75.0868 56.4801C74.3915 58.0504 73.5342 59.6259 72.541 61.1704L78.9708 65.4253C80.2097 63.5129 81.297 61.5021 82.217 59.3979L75.0815 56.4801H75.0868Z" fill="white"></path>
    <path d="M71.6941 62.4557C70.68 63.8913 69.5352 65.2698 68.2806 66.5707L73.7433 71.9865C75.3377 70.3436 76.8013 68.5815 78.1134 66.7054L71.6889 62.4557H71.6941Z" fill="white"></path>
    <path d="M77.2195 49.9656C76.8484 51.6396 76.3204 53.3498 75.6513 55.0601L82.8024 57.9883C83.6336 55.8841 84.3027 53.6971 84.7888 51.4478L77.2143 49.9708L77.2195 49.9656Z" fill="white"></path>
    <path d="M77.4757 36.4234C77.7894 38.1803 77.9671 39.9631 78.0037 41.72H85.7298C85.688 39.4034 85.458 37.1334 85.0555 34.9204L77.4757 36.4234Z" fill="white"></path>
    <path d="M78.0088 43.2489C77.9723 44.9643 77.7998 46.7161 77.4913 48.4574L85.0815 49.9397C85.4684 47.763 85.6932 45.5293 85.7298 43.2489H78.0036H78.0088Z" fill="white"></path>
    <path d="M22.7289 71.0744C21.2809 70.0689 19.8852 68.9288 18.5731 67.6849L13.1104 73.1008C14.7675 74.6866 16.5501 76.1378 18.4424 77.4438L22.7289 71.0744Z" fill="white"></path>
    <path d="M28.7613 74.4431C27.1774 73.7538 25.5882 72.9038 24.02 71.9139L19.7283 78.2886C21.6572 79.5168 23.6907 80.6 25.8182 81.5173L28.7613 74.4431Z" fill="white"></path>
    <path d="M13.2568 61.2844C12.2688 59.7607 11.4115 58.1852 10.6953 56.589L3.56512 59.5275C4.49561 61.6317 5.59337 63.6477 6.83749 65.5549L13.2515 61.2844H13.2568Z" fill="white"></path>
    <path d="M17.4805 66.6069C16.2573 65.3424 15.1282 63.9794 14.1141 62.5593L7.70001 66.8246C9.00164 68.6696 10.4444 70.4058 12.0179 72.0228L17.4805 66.6069Z" fill="white"></path>
    <path d="M35.3479 76.5575C33.6646 76.1895 31.9344 75.6661 30.1989 75.0027L27.2454 82.0925C29.3729 82.9165 31.5789 83.5851 33.8528 84.0671L35.3426 76.5575H35.3479Z" fill="white"></path>
    <path d="M49.0228 76.8063C47.2559 77.1173 45.4577 77.2935 43.6699 77.335V84.9949C46.0118 84.9534 48.3014 84.7254 50.5335 84.3211L49.0176 76.8011L49.0228 76.8063Z" fill="white"></path>
    <path d="M42.1278 77.3401C40.3976 77.3038 38.6307 77.1328 36.8638 76.827L35.3688 84.3574C37.5695 84.7409 39.8225 84.9585 42.1278 85V77.3401Z" fill="white"></path>
    <path d="M42.1278 7.6599V0C39.7912 0.0414609 37.4963 0.264313 35.2642 0.658192L36.7802 8.18334C38.5627 7.87239 40.361 7.69618 42.1278 7.6599Z" fill="white"></path>
    <path d="M42.8649 10.1631C24.8512 10.1631 10.251 24.6381 10.251 42.4974C10.251 60.3567 24.8512 74.8317 42.8649 74.8317C60.8786 74.8317 75.484 60.3515 75.484 42.4974C75.484 24.6433 60.8838 10.1631 42.8649 10.1631ZM15.0811 43.2074L13.2463 44.3683L13.8945 42.3523L12.2217 41.181H14.3127L15.0811 38.9525L15.8495 41.181H17.9457L16.2677 42.3523L16.9159 44.3683L15.0811 43.2074ZM28.8345 49.8826L27.8465 47.2706H22.4152L21.3645 49.8826H17.1773L23.0111 34.8323H27.3237L33.0426 49.8826H28.8345ZM43.2256 48.8668C42.039 49.8619 40.4446 50.2817 38.9182 50.2817C37.0049 50.2817 35.1335 49.6442 33.5862 48.5662L35.2747 45.4152C36.2574 46.2703 37.4231 46.97 38.777 46.97C39.7023 46.97 40.6903 46.5087 40.6903 45.4515C40.6903 44.3942 39.143 43.9744 38.2961 43.736C35.8183 43.0364 34.1926 42.3937 34.1926 39.4863C34.1926 36.4286 36.3829 34.4333 39.4252 34.4333C40.9569 34.4333 42.8283 34.9101 44.177 35.6719L42.6087 38.7089C41.8821 38.1129 40.9569 37.7138 39.9898 37.7138C39.2632 37.7138 38.2961 38.1336 38.2961 38.9732C38.2961 39.8491 39.3625 40.1911 40.0473 40.4088L41.051 40.7094C43.1681 41.3261 44.799 42.3834 44.799 44.8244C44.799 46.3222 44.4331 47.8562 43.2256 48.872V48.8668ZM60.2565 49.8826H56.3098V43.7153H50.6119V49.8826H46.6705V34.8323H50.6119V40.642H56.3098V34.8323H60.2565V49.8826ZM66.7804 49.8826H62.8336V34.8323H66.7804V49.8826ZM70.8525 43.2074L69.0177 44.3683L69.6607 42.3523L67.9879 41.181H70.0841L70.8577 38.9525L71.6262 41.181H73.7224L72.0444 42.3523L72.6926 44.3683L70.863 43.2074H70.8525Z" fill="white"></path>
    <path d="M25.1282 39.4863L23.5025 44.2751H26.7801L25.1701 39.4863H25.1282Z" fill="white"></path>
  </g>
  <defs>
    <clipPath id="clip0_302_57">
      <rect width="241" height="85" fill="white"></rect>
    </clipPath>
  </defs>
</svg>
